<svg width="74" height="74" viewBox="0 0 74 74" fill="none" xmlns="http://www.w3.org/2000/svg">
<path d="M27.7498 9.25006V15.4167H12.3332V58.5834H61.6665V30.8334H67.8332V61.6667C67.8332 62.4845 67.5083 63.2687 66.9301 63.847C66.3519 64.4252 65.5676 64.75 64.7498 64.75H9.24984C8.43209 64.75 7.64783 64.4252 7.06959 63.847C6.49135 63.2687 6.1665 62.4845 6.1665 61.6667V12.3334C6.1665 11.5156 6.49135 10.7314 7.06959 10.1531C7.64783 9.57491 8.43209 9.25006 9.24984 9.25006H27.7498ZM58.429 15.4167L49.3332 6.32089L53.693 1.96106L70.158 18.4261C70.4164 18.6848 70.5923 19.0143 70.6636 19.3729C70.7348 19.7316 70.6982 20.1033 70.5583 20.4411C70.4184 20.779 70.1816 21.0678 69.8776 21.2711C69.5737 21.4744 69.2163 21.5831 68.8507 21.5834H43.1665C41.531 21.5834 39.9625 22.2331 38.806 23.3896C37.6495 24.546 36.9998 26.1146 36.9998 27.7501V46.25H30.8332V27.7501C30.8332 24.4791 32.1326 21.342 34.4455 19.0291C36.7585 16.7161 39.8955 15.4167 43.1665 15.4167H58.429Z" fill="#FFBB00"/>
</svg>
