<svg width="30" height="30" viewBox="0 0 30 30" fill="none" xmlns="http://www.w3.org/2000/svg">
<path d="M12.1876 4.32935V20.6231C12.1876 20.7358 12.1673 20.8476 12.1276 20.9531L17.8126 23.7956V7.14185L12.1876 4.32935ZM10.3126 4.25435L3.75008 7.17185V23.8706L10.3632 20.9306C10.3293 20.8316 10.3122 20.7277 10.3126 20.6231V4.25435ZM10.8263 1.97435C10.9637 1.90467 11.1162 1.86993 11.2702 1.8732C11.4243 1.87647 11.5751 1.91765 11.7095 1.9931L18.7745 5.5256L26.807 1.9556C26.9497 1.89218 27.106 1.86544 27.2617 1.87779C27.4174 1.89015 27.5676 1.94121 27.6985 2.02634C27.8295 2.11147 27.9371 2.22798 28.0116 2.36526C28.0861 2.50255 28.1251 2.65628 28.1251 2.81248V21.5625C28.1251 21.7439 28.0725 21.9214 27.9737 22.0735C27.8748 22.2256 27.734 22.3457 27.5682 22.4193L19.1307 26.1693C19.0042 26.2255 18.8667 26.253 18.7283 26.2498C18.5899 26.2465 18.4539 26.2127 18.3301 26.1506L11.2257 22.5994L3.19508 26.1693C3.05234 26.2328 2.89601 26.2595 2.7403 26.2472C2.5846 26.2348 2.43444 26.1837 2.30349 26.0986C2.17253 26.0135 2.06492 25.897 1.99043 25.7597C1.91594 25.6224 1.87693 25.4687 1.87695 25.3125V6.56248C1.87693 6.38109 1.92953 6.20358 2.02837 6.05149C2.12722 5.8994 2.26806 5.77924 2.43383 5.7056L10.8263 1.97435ZM19.6876 7.17185V23.8706L26.2501 20.9531V4.25623L19.6876 7.17185Z" fill="#101010"/>
</svg>
