<svg width="50" height="50" viewBox="0 0 50 50" fill="none" xmlns="http://www.w3.org/2000/svg">
<path d="M24.6452 22.6458C24.8743 22.625 25.1243 22.625 25.3327 22.6458C26.546 22.6239 27.7432 22.3633 28.8558 21.8787C29.9685 21.3942 30.9747 20.6952 31.8172 19.8218C32.6597 18.9483 33.3219 17.9175 33.7661 16.7881C34.2102 15.6587 34.4275 14.4529 34.4056 13.2396C34.3837 12.0262 34.1231 10.8291 33.6385 9.71643C33.1539 8.60381 32.455 7.59752 31.5815 6.75502C30.7081 5.91253 29.6772 5.25032 28.5479 4.80621C27.4185 4.36209 26.2127 4.14478 24.9993 4.16666C19.8743 4.16666 15.7493 8.3125 15.7493 13.4167C15.7426 15.8093 16.6673 18.1106 18.3277 19.8332C19.9882 21.5559 22.2539 22.5646 24.6452 22.6458Z" stroke="#FFBB00" stroke-width="3.125" stroke-linecap="round" stroke-linejoin="round"/>
<path d="M14.916 42.5625C9.87435 39.2083 9.87435 33.7083 14.916 30.3333C20.666 26.5208 30.0618 26.5208 35.7702 30.3333C40.8118 33.6875 40.8118 39.1875 35.7702 42.5625C30.041 46.3958 20.6452 46.3958 14.916 42.5625Z" stroke="#FFBB00" stroke-width="3.125" stroke-linecap="round" stroke-linejoin="round"/>
</svg>
